{"title":"Appleseed Alpha 2014 720p BluRay x264 DTS RARBG DUAL KALAZANS","uid":10631252,"size":5136725778,"categoryP":"video","categoryS":"hd___movies","magnet":"?xt=urn:btih:fe2518bf8a0c8c4b222b5b962c53cba61b1b8f16&amp;dn=Appleseed+Alpha+2014+720p+BluRay+x264+DTS+RARBG+DUAL+KALAZANS&amp;tr=udp%3A%2F%2Ftracker.openbittorrent.com%3A80&amp;tr=udp%3A%2F%2Fopen.demonii.com%3A1337&amp;tr=udp%3A%2F%2Ftracker.coppersurfer.tk%3A6969&amp;tr=udp%3A%2F%2Fexodus.desync.com%3A6969","seeders":7,"leechers":4,"uploader":"Alemao99","files":5,"time":1406322698,"description":"Appleseed Alpha, will be a reboot of the story and will show the early days of Deunan and Briarios in search of the city of Olympus. \n\nTitle in Brazil: Appleseed Alpha \nOriginal Title: Appleseed Alpha \nCountry of origin: \nDirected by Shinji Aramaki \nRunning time: 112 min \nRelease Year: 2014 \nGenre: Animation | Action | Fiction \nIMDB: http://www.imdb.com/title/tt3638012/ \n\nVideo Quality: Bluray \nFile Size: 4.7GB \nNumber of Media: 1 \nResolution: 1280 x 720 \nFile Extension: MKV \nVideo Format: Widescreen (16x9) \nVideo codec: H.264 / AVC \nAudio Codec: AC3 / DTS \nAudio Language: English / Portuguese \nCaption: Portuguese\n\n\nFormat                                   : Matroska\nFormat version                           : Version 2\nFile size                                : 4.78 GiB\nDuration                                 : 1h 33mn\nOverall bit rate                         : 7 344 Kbps\nMovie name                               : Appleseed.Alpha.2014.720p.BluRay.x264.DTS-RARBG.DUAL-KALAZANS\nEncoded date                             : UTC 2014-07-23 13:47:29\nWriting application                      : mkvmerge v4.4.0 ('Die Wiederkehr') built on Oct 31 2010 21:52:48\nWriting library                          : libebml v1.0.0 + libmatroska v1.0.0\n\nVideo\nID                                       : 1\nFormat                                   : AVC\nFormat/Info                              : Advanced Video Codec\nFormat profile                           : &lt;a class=&quot;__cf_email__&quot; href=&quot;/cdn-cgi/l/email-protection&quot; data-cfemail=&quot;d69ebfb1be969ae2f8e7&quot;&gt;[email&amp;#160;protected]&lt;/a&gt;&lt;script cf-hash='f9e31' type=&quot;text/javascript&quot;&gt;\n/* &lt;![CDATA[ */!function(){try{var t=&quot;currentScript&quot;in document?document.currentScript:function(){for(var t=document.getElementsByTagName(&quot;script&quot;),e=t.length;e--;)if(t[e].getAttribute(&quot;cf-hash&quot;))return t[e]}();if(t&amp;&amp;t.previousSibling){var e,r,n,i,c=t.previousSibling,a=c.getAttribute(&quot;data-cfemail&quot;);if(a){for(e=&quot;&quot;,r=parseInt(a.substr(0,2),16),n=2;a.length-n;n+=2)i=parseInt(a.substr(n,2),16)^r,e+=String.fromCharCode(i);e=document.createTextNode(e),c.parentNode.replaceChild(e,c)}}}catch(u){}}();/* ]]&gt; */&lt;/script&gt;\nFormat settings, CABAC                   : Yes\nFormat settings, ReFrames                : 4 frames\nMuxing mode                              : Header stripping\nCodec ID                                 : V_MPEG4/ISO/AVC\nDuration                                 : 1h 33mn\nBit rate                                 : 5 500 Kbps\nWidth                                    : 1 280 pixels\nHeight                                   : 720 pixels\nDisplay aspect ratio                     : 16:9\nFrame rate                               : 23.976 fps\nColor space                              : YUV\nChroma subsampling                       : 4:2:0\nBit depth                                : 8 bits\nScan type                                : Progressive\nBits/(Pixel*Frame)                       : 0.249\nStream size                              : 3.45 GiB (72%)\nTitle                                    : Appleseed.Alpha.2014.720p.BluRay.x264.DTS-RARBG.DUAL-KALAZANS\nWriting library                          : x264 core 142 r2431 ac76440\nEncoding settings                        : cabac=1 / ref=4 / deblock=1:0:0 / analyse=0x3:0x113 / me=umh / subme=8 / psy=1 / psy_rd=1.00:0.00 / mixed_ref=1 / me_range=16 / chroma_me=1 / trellis=1 / 8x8dct=1 / cqm=0 / deadzone=21,11 / fast_pskip=1 / chroma_qp_offset=-2 / threads=12 / lookahead_threads=2 / sliced_threads=0 / nr=0 / decimate=1 / interlaced=0 / bluray_compat=0 / constrained_intra=0 / bframes=3 / b_pyramid=2 / b_adapt=2 / b_bias=0 / direct=3 / weightb=1 / open_gop=0 / weightp=2 / keyint=240 / keyint_min=24 / scenecut=40 / intra_refresh=0 / rc_lookahead=50 / rc=abr / mbtree=1 / bitrate=5500 / ratetol=1.0 / qcomp=0.60 / qpmin=0 / qpmax=69 / qpstep=4 / vbv_maxrate=62500 / vbv_bufsize=78125 / nal_hrd=none / filler=0 / ip_ratio=1.40 / aq=1:1.00\nDefault                                  : Yes\nForced                                   : No\nColor primaries                          : BT.709-5, BT.1361, IEC 61966-2-4, SMPTE RP177\nTransfer characteristics                 : BT.709-5, BT.1361\nMatrix coefficients                      : BT.709-5, BT.1361, IEC 61966-2-4 709, SMPTE RP177\n\nAudio #1\nID                                       : 2\nFormat                                   : AC-3\nFormat/Info                              : Audio Coding 3\nMode extension                           : CM (complete main)\nFormat settings, Endianness              : Big\nMuxing mode                              : Header stripping\nCodec ID                                 : A_AC3\nDuration                                 : 1h 33mn\nBit rate mode                            : Constant\nBit rate                                 : 384 Kbps\nChannel(s)                               : 6 channels\nChannel positions                        : Front: L C R, Side: L R, LFE\nSampling rate                            : 48.0 KHz\nBit depth                                : 16 bits\nCompression mode                         : Lossy\nDelay relative to video                  : -83ms\nStream size                              : 256 MiB (5%)\nTitle                                    : AC3 5.1 - KALAZANS\nLanguage                                 : Portuguese\nDefault                                  : Yes\nForced                                   : Yes\n\nAudio #2\nID                                       : 3\nFormat                                   : DTS\nFormat/Info                              : Digital Theater Systems\nMuxing mode                              : Header stripping\nCodec ID                                 : A_DTS\nDuration                                 : 1h 33mn\nBit rate mode                            : Constant\nBit rate                                 : 1 510 Kbps\nChannel(s)                               : 6 channels\nChannel positions                        : Front: L C R, Side: L R, LFE\nSampling rate                            : 48.0 KHz\nBit depth                                : 24 bits\nCompression mode                         : Lossy\nDelay relative to video                  : -72ms\nStream size                              : 1 007 MiB (21%)\nTitle                                    : DTS 5.1 - KALAZANS\nLanguage                                 : English\nDefault                                  : No\nForced                                   : No\n\n\nSEED PLEASE\n\nENJOY...","torrent":{"xt":"urn:btih:fe2518bf8a0c8c4b222b5b962c53cba61b1b8f16","amp;dn":"Appleseed+Alpha+2014+720p+BluRay+x264+DTS+RARBG+DUAL+KALAZANS","amp;tr":["udp%3A%2F%2Ftracker.openbittorrent.com%3A80","udp%3A%2F%2Fopen.demonii.com%3A1337","udp%3A%2F%2Ftracker.coppersurfer.tk%3A6969","udp%3A%2F%2Fexodus.desync.com%3A6969"],"infoHash":"fe2518bf8a0c8c4b222b5b962c53cba61b1b8f16","infoHashBuffer":{"type":"Buffer","data":[254,37,24,191,138,12,140,75,34,43,91,150,44,83,203,166,27,27,143,22]},"announce":[],"urlList":[]}}